<?xml version="1.0" encoding="UTF-8"?>
<svg version="1.1" xmlns="http://www.w3.org/2000/svg" width="200" height="200">
<path d="M0 0 C66 0 132 0 200 0 C200 66 200 132 200 200 C134 200 68 200 0 200 C0 134 0 68 0 0 Z " fill="#FEFEFE" transform="translate(0,0)"/>
<path d="M0 0 C0.02578125 1.20011719 0.0515625 2.40023437 0.078125 3.63671875 C0.98796207 33.64004151 8.45709886 60.87901666 28.8125 83.5234375 C31 86 31 86 32 88 C31.15973267 88.16653076 31.15973267 88.16653076 30.30249023 88.33642578 C22.88166015 89.81328945 15.47163907 91.34069566 8.0625 92.875 C6.79083984 93.13748535 5.51917969 93.3999707 4.20898438 93.67041016 C-1.51242961 94.85332769 -7.23171071 96.04288399 -12.94140625 97.28125 C-13.80838135 97.4683252 -14.67535645 97.65540039 -15.56860352 97.84814453 C-17.13906763 98.18844592 -18.70864416 98.5328817 -20.27709961 98.88232422 C-24.01748754 99.69108027 -27.12200219 100 -31 100 C-31 71.29 -31 42.58 -31 13 C-25.72 10.69 -20.44 8.38 -15 6 C-10.16224265 3.56320408 -10.16224265 3.56320408 -5.35546875 1.06640625 C-3 0 -3 0 0 0 Z " fill="#030303" transform="translate(127,49)"/>
<path d="M0 0 C0.66 0.33 1.32 0.66 2 1 C1.62488281 1.59425781 1.24976563 2.18851563 0.86328125 2.80078125 C-6.15416727 14.16657319 -10.06150895 25.07928199 -13 38 C-13.17797119 38.62245605 -13.35594238 39.24491211 -13.53930664 39.88623047 C-14.52086066 44.38983125 -14.18473705 49.09823296 -14.1875 53.6875 C-14.20586914 55.2643457 -14.20586914 55.2643457 -14.22460938 56.87304688 C-14.23513575 62.51167441 -13.84377062 67.56948616 -12.4387207 73.03051758 C-11.84258932 75.70663992 -11.86012081 78.27235587 -12 81 C-40.07423581 96 -40.07423581 96 -44 96 C-48.71607437 72.91807502 -42.72959374 49.95927261 -30.625 30.1875 C-22.26708717 17.76256709 -12.70335182 7.92833305 0 0 Z " fill="#050505" transform="translate(87,56)"/>
<path d="M0 0 C0.66 0.33 1.32 0.66 2 1 C1.04532436 2.62715156 0.08613152 4.25165346 -0.875 5.875 C-1.40867187 6.77992187 -1.94234375 7.68484375 -2.4921875 8.6171875 C-4 11 -4 11 -6 13 C-6.433125 12.525625 -6.86625 12.05125 -7.3125 11.5625 C-9.02309613 9.76313043 -9.02309613 9.76313043 -12 9 C-10.56351736 7.87370125 -9.12577415 6.7490101 -7.6875 5.625 C-6.88699219 4.99851562 -6.08648437 4.37203125 -5.26171875 3.7265625 C-3.55336788 2.42243282 -1.78827274 1.19218183 0 0 Z " fill="#1F1F1F" transform="translate(87,56)"/>
<path d="M0 0 C0.33 0.66 0.66 1.32 1 2 C-0.61992165 2.86375896 -2.24611861 3.71575854 -3.875 4.5625 C-5.23238281 5.27599609 -5.23238281 5.27599609 -6.6171875 6.00390625 C-7.40351562 6.33261719 -8.18984375 6.66132812 -9 7 C-9.66 6.67 -10.32 6.34 -11 6 C-8.67640938 -0.47285958 -6.6985661 -0.12404752 0 0 Z M-6 1 C-5 3 -5 3 -5 3 Z " fill="#E8E8E8" transform="translate(121,49)"/>
<path d="M0 0 C2.1875 0.3125 2.1875 0.3125 4 1 C4 2.98 4 4.96 4 7 C3.1028125 6.2884375 3.1028125 6.2884375 2.1875 5.5625 C-0.00382924 3.83534256 -0.00382924 3.83534256 -3 3 C-1.75 1.4375 -1.75 1.4375 0 0 Z " fill="#141414" transform="translate(78,62)"/>
<path d="M0 0 C0.66 0.33 1.32 0.66 2 1 C1.01 2.32 0.02 3.64 -1 5 C-2.65 4.67 -4.3 4.34 -6 4 C-3.94766315 1.7522025 -2.99332739 0.9977758 0 0 Z " fill="#E5E5E5" transform="translate(56,146)"/>
<path d="M0 0 C-0.33 1.32 -0.66 2.64 -1 4 C-1.99 3.67 -2.98 3.34 -4 3 C-4.66 3.66 -5.32 4.32 -6 5 C-6 4.34 -6 3.68 -6 3 C-6.66 2.67 -7.32 2.34 -8 2 C-5.09399739 0.74335022 -3.20395416 0 0 0 Z " fill="#151515" transform="translate(127,49)"/>
</svg>
