<?xml version="1.0" encoding="UTF-8"?>
<svg version="1.1" xmlns="http://www.w3.org/2000/svg" width="225" height="225">
<path d="M0 0 C74.25 0 148.5 0 225 0 C225 74.25 225 148.5 225 225 C150.75 225 76.5 225 0 225 C0 150.75 0 76.5 0 0 Z " fill="#FDFEFE" transform="translate(0,0)"/>
<path d="M0 0 C2.68669288 2.45922527 4.93126638 5.00578028 7 8 C2.28738435 9.57087188 -2.37318752 8.02684128 -7.16210938 7.11523438 C-14.74239122 5.78761439 -20.9387314 6 -29 6 C-29.33 18.87 -29.66 31.74 -30 45 C-30.99 45 -31.98 45 -33 45 C-33.33 32.13 -33.66 19.26 -34 6 C-46.94215039 5.82028131 -46.94215039 5.82028131 -59.3125 7.5625 C-66.64362583 9.11879139 -66.64362583 9.11879139 -70 8 C-63.75469344 -1.0392595 -54.08915632 -6.20735819 -43.4375 -8.4375 C-27.6577798 -10.54609697 -13.51063758 -8.53911935 0 0 Z " fill="#1668B3" transform="translate(146,63)"/>
<path d="M0 0 C0.3562502 7.26750416 -0.99710114 13.90794211 -2.5 21 C-2.85771484 22.73443359 -2.85771484 22.73443359 -3.22265625 24.50390625 C-3.80810366 27.33747173 -4.40071501 30.16933471 -5 33 C-6.73526115 32.56594799 -8.46782326 32.12109885 -10.19921875 31.671875 C-11.16432373 31.4253418 -12.12942871 31.17880859 -13.1237793 30.92480469 C-21.52741998 28.22274282 -28.00413907 22.17466887 -32.375 14.625 C-33.29726888 10.7514707 -33.15535958 6.96166932 -33 3 C-28.04701991 1.46708809 -23.21756306 0.48147801 -18.0625 -0.125 C-17.39798828 -0.21136719 -16.73347656 -0.29773438 -16.04882812 -0.38671875 C-3.77374805 -1.88687403 -3.77374805 -1.88687403 0 0 Z " fill="#1467B3" transform="translate(107,74)"/>
<path d="M0 0 C1.45263378 0.08624171 2.90450439 0.18603744 4.35546875 0.296875 C5.11214844 0.3484375 5.86882812 0.4 6.6484375 0.453125 C25.33328125 1.8371875 25.33328125 1.8371875 27.54296875 4.046875 C28.39161172 10.26621565 27.84604688 15.04103137 24.1484375 20.16796875 C17.31224602 28.16847508 9.81794267 32.05954754 -0.45703125 34.046875 C-1.30162361 30.0283225 -2.13067622 26.00671394 -2.95703125 21.984375 C-3.19550781 20.85064453 -3.43398437 19.71691406 -3.6796875 18.54882812 C-5.97956221 7.27944202 -5.97956221 7.27944202 -5.45703125 2.046875 C-3.45703125 0.046875 -3.45703125 0.046875 0 0 Z " fill="#1467B3" transform="translate(127.45703125,72.953125)"/>
<path d="M0 0 C3.96 0 7.92 0 12 0 C22 21.42857143 22 21.42857143 22 28 C18.7 28 15.4 28 12 28 C10.35 23.38 8.7 18.76 7 14 C5.06061181 16.90908228 4.03225043 19.40862379 2.875 22.6875 C2.52179688 23.68136719 2.16859375 24.67523438 1.8046875 25.69921875 C1.40636719 26.83810547 1.40636719 26.83810547 1 28 C-2.63 28 -6.26 28 -10 28 C-7.89918094 21.59411787 -5.66068523 15.25652038 -3.3125 8.9375 C-2.99216797 8.07189453 -2.67183594 7.20628906 -2.34179688 6.31445312 C-1.56248846 4.20915725 -0.78143019 2.10450925 0 0 Z " fill="#1C6CB5" transform="translate(92,120)"/>
<path d="M0 0 C3.96 0 7.92 0 12 0 C13.42842911 3.66452852 14.85247676 7.33072569 16.27246094 10.99853516 C16.99441847 12.86060415 17.71985238 14.72132407 18.4453125 16.58203125 C18.89648438 17.74863281 19.34765625 18.91523438 19.8125 20.1171875 C20.23144531 21.19597168 20.65039062 22.27475586 21.08203125 23.38623047 C22 26 22 26 22 28 C18.37 28 14.74 28 11 28 C10.32815382 25.89748139 9.66269032 23.79292237 9 21.6875 C8.443125 19.92986328 8.443125 19.92986328 7.875 18.13671875 C7 15 7 15 7 12 C6.34 12 5.68 12 5 12 C4.87882812 12.56847656 4.75765625 13.13695312 4.6328125 13.72265625 C3.58677946 18.54245464 2.40795516 23.2732934 1 28 C-2.63 28 -6.26 28 -10 28 C-7.3663063 18.39476416 -3.67507822 9.24307344 0 0 Z " fill="#1A6BB4" transform="translate(39,120)"/>
<path d="M0 0 C8.91 0 17.82 0 27 0 C27 2.97 27 5.94 27 9 C24.36 9 21.72 9 19 9 C19 15.27 19 21.54 19 28 C15.37 28 11.74 28 8 28 C8 21.73 8 15.46 8 9 C5.36 9 2.72 9 0 9 C0 6.03 0 3.06 0 0 Z " fill="#216FB6" transform="translate(5,120)"/>
<path d="M0 0 C8.58 0 17.16 0 26 0 C26 2.31 26 4.62 26 7 C23.36 7 20.72 7 18 7 C18 13.27 18 19.54 18 26 C14.7 26 11.4 26 8 26 C8 19.73 8 13.46 8 7 C5.36 7 2.72 7 0 7 C0 4.69 0 2.38 0 0 Z " fill="#0F65B2" transform="translate(59,121)"/>
<path d="M0 0 C5.28 0 10.56 0 16 0 C16 1.65 16 3.3 16 5 C12.37 5 8.74 5 5 5 C5 6.98 5 8.96 5 11 C8.3 11 11.6 11 15 11 C15 12.32 15 13.64 15 15 C11.7 15 8.4 15 5 15 C5 17.64 5 20.28 5 23 C8.96 23 12.92 23 17 23 C17 24.65 17 26.3 17 28 C11.39 28 5.78 28 0 28 C0 18.76 0 9.52 0 0 Z " fill="#2C75B8" transform="translate(128,120)"/>
<path d="M0 0 C1.98 0 3.96 0 6 0 C6.26554688 0.56589844 6.53109375 1.13179688 6.8046875 1.71484375 C7.15789062 2.44832031 7.51109375 3.18179688 7.875 3.9375 C8.22304687 4.66839844 8.57109375 5.39929688 8.9296875 6.15234375 C9.8684977 8.16332459 9.8684977 8.16332459 12 9 C12.28875 8.071875 12.5775 7.14375 12.875 6.1875 C14 3 14 3 16 0 C19.125 -0.1875 19.125 -0.1875 22 0 C21.48308594 0.80824219 20.96617187 1.61648437 20.43359375 2.44921875 C19.44552734 4.05216797 19.44552734 4.05216797 18.4375 5.6875 C17.77621094 6.74324219 17.11492187 7.79898438 16.43359375 8.88671875 C14.78916748 11.82841814 14.78916748 11.82841814 15.125 14.6328125 C16.03020564 17.08171704 17.09761925 19.02982665 18.5625 21.1875 C21 24.79886686 21 24.79886686 21 27 C18.8125 27.5 18.8125 27.5 16 27 C13.98728161 24.51946058 12.48112914 21.82359938 11 19 C8.98863724 21.55991624 7.37154504 24.04590299 6 27 C4.02 27 2.04 27 0 27 C0.44472656 26.27554688 0.88945312 25.55109375 1.34765625 24.8046875 C1.91355469 23.83789062 2.47945312 22.87109375 3.0625 21.875 C3.63097656 20.92367187 4.19945312 19.97234375 4.78515625 18.9921875 C6.24269259 15.40224269 6.0734116 13.68736761 5 10 C3.86401093 7.7295709 3.86401093 7.7295709 2.4375 5.75 C0 2.18696884 0 2.18696884 0 0 Z " fill="#1D6CB4" transform="translate(167,120)"/>
<path d="M0 0 C0.99 0.33 1.98 0.66 3 1 C2.67 2.32 2.34 3.64 2 5 C-0.64 5 -3.28 5 -6 5 C-6.33 6.32 -6.66 7.64 -7 9 C-6.06027344 9.50660156 -6.06027344 9.50660156 -5.1015625 10.0234375 C-4.28429687 10.46945313 -3.46703125 10.91546875 -2.625 11.375 C-1.81289062 11.81585938 -1.00078125 12.25671875 -0.1640625 12.7109375 C2 14 2 14 4 16 C4.44678306 20.02104757 4.6808704 22.13756416 2.125 25.375 C-0.96864528 27.74072874 -2.66232609 28.13745998 -6.5 28.125 C-7.2940625 28.12757813 -8.088125 28.13015625 -8.90625 28.1328125 C-11 28 -11 28 -13 27 C-13 25.68 -13 24.36 -13 23 C-9.7 23 -6.4 23 -3 23 C-2.67 21.35 -2.34 19.7 -2 18 C-2.54269531 17.74605469 -3.08539063 17.49210937 -3.64453125 17.23046875 C-4.35996094 16.88628906 -5.07539063 16.54210937 -5.8125 16.1875 C-6.52019531 15.85105469 -7.22789062 15.51460937 -7.95703125 15.16796875 C-10.0527535 13.96984073 -11.46843464 12.86144097 -13 11 C-13.69583813 6.99893076 -13.33463357 5.48103575 -11 2.125 C-6.91621375 -0.76768193 -4.92826684 -0.47692905 0 0 Z " fill="#1B6CB3" transform="translate(205,120)"/>
<path d="M0 0 C1.65 0 3.3 0 5 0 C5 7.59 5 15.18 5 23 C8.63 23 12.26 23 16 23 C16 24.32 16 25.64 16 27 C10.72 27 5.44 27 0 27 C0 18.09 0 9.18 0 0 Z " fill="#196BB3" transform="translate(149,120)"/>
<path d="M0 0 C0.99 0 1.98 0 3 0 C3 12.87 3 25.74 3 39 C2.01 39 1.02 39 0 39 C0 26.13 0 13.26 0 0 Z " fill="#055FAF" transform="translate(113,69)"/>
<path d="M0 0 C1.32 0 2.64 0 4 0 C4 8.58 4 17.16 4 26 C2.68 26 1.36 26 0 26 C0 17.42 0 8.84 0 0 Z " fill="#0962AF" transform="translate(214,121)"/>
<path d="M0 0 C1.32 0.33 2.64 0.66 4 1 C3.34 2.98 2.68 4.96 2 7 C0.02 7 -1.96 7 -4 7 C-2.68 4.69 -1.36 2.38 0 0 Z " fill="#1366B0" transform="translate(171,140)"/>
<path d="M0 0 C4.455 0.99 4.455 0.99 9 2 C9.33 1.34 9.66 0.68 10 0 C10 1.32 10 2.64 10 4 C6.37 4 2.74 4 -1 4 C-0.67 2.68 -0.34 1.36 0 0 Z " fill="#3C7EBC" transform="translate(30,144)"/>
<path d="M0 0 C3.3 0.33 6.6 0.66 10 1 C10 1.33 10 1.66 10 2 C8.02 2 6.04 2 4 2 C4 2.66 4 3.32 4 4 C2.68 4 1.36 4 0 4 C0 2.68 0 1.36 0 0 Z " fill="#0861AD" transform="translate(192,143)"/>
<path d="M0 0 C1.74627478 2.61941217 2.38722388 4.03824877 3 7 C0.525 6.01 0.525 6.01 -2 5 C-2 2 -2 2 0 0 Z " fill="#0A64AE" transform="translate(196,128)"/>
</svg>
