<?xml version="1.0" encoding="UTF-8"?>
<svg version="1.1" xmlns="http://www.w3.org/2000/svg" width="224" height="224">
<path d="M0 0 C73.92 0 147.84 0 224 0 C224 73.92 224 147.84 224 224 C150.08 224 76.16 224 0 224 C0 150.08 0 76.16 0 0 Z " fill="currentColor" transform="translate(0,0)"/>
<path d="M0 0 C1.33333333 1.33333333 2.66666667 2.66666667 4 4 C7.5 4.66666667 7.5 4.66666667 11 4 C11.66 3.34 12.32 2.68 13 2 C15 0 15 0 18.5 -0.5 C22.62947573 0.0899251 23.1628016 1.1628016 26 4 C29.5 4.66666667 29.5 4.66666667 33 4 C33.66 3.34 34.32 2.68 35 2 C37 0 37 0 40.375 -0.5625 C44.01322934 0.00205283 44.60929574 0.24130896 47.125 2.5625 C49.70577514 5.26805199 49.70577514 5.26805199 52.625 5.0625 C55.13236612 4.13115423 55.13236612 4.13115423 56.875 1.9375 C59 0 59 0 62.375 -0.5625 C66.88476068 0.13729045 68.57629674 2.08620999 72 5 C75.25276753 5.41990073 75.25276753 5.41990073 78 5 C78.28875 4.360625 78.5775 3.72125 78.875 3.0625 C80 1 80 1 82 0 C86.03191305 -0.53758841 87.5619036 -0.3075996 90.9375 2.0625 C93 5 93 5 93.0625 8.5625 C91.91954041 12.26031044 90.70557704 13.38169963 88 16 C87.16574215 18.41174293 87.16574215 18.41174293 88 21 C89.68133435 23.48745355 91.47258843 25.36867072 94 27 C97.15372409 27.33550847 97.15372409 27.33550847 100 26 C100.66 25.319375 101.32 24.63875 102 23.9375 C104 22 104 22 106.9375 21.5 C110.81118865 22.13243896 112.41830549 23.03864454 115 26 C115.63734462 29.96569988 115.61999672 32.03280512 113.4375 35.4375 C110.04295632 37.61348954 107.9634351 37.55627159 104 37 C102.3174387 35.68678142 100.65002828 34.35386936 99 33 C95.95720628 32.33319632 95.95720628 32.33319632 93 33 C92.38125 33.66 91.7625 34.32 91.125 35 C88.74977497 37.23550591 88.13249268 37.36129184 85 37.5 C80.97056323 37.32157476 79.73741251 35.91990668 77 33 C74.04308291 32.24984805 74.04308291 32.24984805 71 33 C67.71139686 35.43070667 66.23243585 36.9075515 65.375 40.9375 C65.79314646 44.24818399 65.79314646 44.24818399 68.5625 47 C71 50 71 50 71.0625 53.125 C70 56 70 56 67.9375 58 C65.74938884 59.89522037 65.74938884 59.89522037 65.4375 62.875 C66.17791105 66.98839472 68.325066 68.85695255 71 72 C71.625 74.5625 71.625 74.5625 71 77 C68.49589333 80.31425883 67.08520276 81.82282404 62.9375 82.5 C59.75397273 81.95812302 58.27058938 81.27058938 56 79 C56 78.34 56 77.68 56 77 C51.6677071 76.5752654 49.65037512 76.52951587 46.0625 79.125 C43.83095436 81.82990517 43.83095436 81.82990517 43.375 84.9375 C44.19777457 88.96909538 46.36345392 90.90205835 49 94 C49.625 96.5625 49.625 96.5625 49 99 C46.53235541 102.26600019 45.04381805 103.78253791 41 104.625 C36.9256644 103.77618008 35.45594125 102.32274404 33 99 C32.375 96.0625 32.375 96.0625 33 93 C34.66666667 91 36.33333333 89 38 87 C38.41990073 83.74723247 38.41990073 83.74723247 38 81 C37.360625 80.71125 36.72125 80.4225 36.0625 80.125 C34 79 34 79 33 77 C32.625 74.25 32.625 74.25 33 71 C33.845625 70.01 34.69125 69.02 35.5625 68 C38.31561721 65.23979957 38.31561721 65.23979957 38.0625 61.875 C37.20074803 58.90648332 37.20074803 58.90648332 34.9375 57 C33 55 33 55 32.5625 52 C33.03744388 48.74324199 33.68943863 47.31056137 36 45 C36.66 45 37.32 45 38 45 C38.49348175 40.85475329 38.13854307 39.220039 35.875 35.625 C33.25104155 32.77849196 33.25104155 32.77849196 29.9375 32.375 C26.89543439 32.72992242 26.89543439 32.72992242 25.125 35 C22.74977497 37.23550591 22.13249268 37.36129184 19 37.5 C16.06170221 37.33554303 15.04784671 37.03110036 12.5 35.375 C10.49223306 32.19603567 10.34485991 30.71246053 11 27 C12.1640625 25.234375 12.1640625 25.234375 13.5625 23.4375 C15.7021178 20.73388678 15.7021178 20.73388678 16.0625 17.3125 C14.71716692 14.38442213 13.64506256 12.87938655 11 11 C7.5 10.33333333 7.5 10.33333333 4 11 C3.34 11.66 2.68 12.32 2 13 C0 15 0 15 -3.5 15.5 C-7 15 -7 15 -9.4375 13.4375 C-11.60396028 10.05782196 -11.56288002 7.94016013 -11 4 C-8.11188513 -0.5054592 -5.11821063 -0.73117295 0 0 Z " fill="#F7F7F7" transform="translate(60,64)"/>
<path d="M0 0 C0.268125 0.639375 0.53625 1.27875 0.8125 1.9375 C1.88667752 4.33131686 1.88667752 4.33131686 5 5 C5.875 8.125 5.875 8.125 6 12 C4.44579285 14.64387269 2.57651148 16.35725778 0 18 C-3 18.75 -3 18.75 -6 18 C-9.60899683 15.57752268 -11.68923308 13.24306767 -12.75 9 C-11.12170502 2.48682007 -6.77525755 -0.96789394 0 0 Z " fill="#050505" transform="translate(115,118)"/>
<path d="M0 0 C4.22734817 1.05683704 6.73218691 3.0167048 9 6.75 C9.25297201 10.35485111 9.05596421 12.43664451 6.75 15.3046875 C4.52200229 17.35862289 2.41847261 18.63492003 -0.5 19.4375 C-4.40576966 18.36341334 -6.71943254 16.04666188 -9 12.75 C-9.75 9.75 -9.75 9.75 -9 6.75 C-6.57752268 3.14100317 -4.24306767 1.06076692 0 0 Z " fill="#050505" transform="translate(112,95.25)"/>
<path d="M0 0 C4.65409412 0.97980929 6.91066028 2.85568992 9.5625 6.75 C10.375 9.1875 10.375 9.1875 9.5625 11.75 C7.54287818 14.55215335 5.41096518 16.78593731 2.5625 18.75 C-1.59450037 19.08256003 -3.0135218 18.07259211 -6.3125 15.5625 C-8.4375 12.75 -8.4375 12.75 -9.0625 9.8125 C-7.9481266 4.35207036 -5.50623131 1.20135956 0 0 Z " fill="#060606" transform="translate(89.4375,73.25)"/>
<path d="M0 0 C4.22734817 1.05683704 6.73218691 3.0167048 9 6.75 C9.25350819 10.36249169 9.01574595 12.4207119 6.78515625 15.33984375 C4.24382561 17.77331951 2.44946223 18.7316546 -1.0625 18.875 C-4.78769995 17.44832768 -6.59562291 15.9322638 -9 12.75 C-9.6875 9.8125 -9.6875 9.8125 -9 6.75 C-6.58914067 3.13782511 -4.23623744 1.05905936 0 0 Z " fill="#040404" transform="translate(112,73.25)"/>
<path d="M0 0 C4.22734817 1.05683704 6.73218691 3.0167048 9 6.75 C9.25350819 10.36249169 9.01574595 12.4207119 6.78515625 15.33984375 C4.2588481 17.75893458 2.42167797 18.72418298 -1.0625 18.9375 C-5.0381947 17.33030427 -6.6700918 15.31338901 -9 11.75 C-9.6875 9.25 -9.6875 9.25 -9 6.75 C-6.52981388 3.2006882 -4.23204785 1.05801196 0 0 Z " fill="#030303" transform="translate(134,73.25)"/>
<path d="M0 0 C4.68322981 1.44099379 4.68322981 1.44099379 6.0625 3.875 C6 6 6 6 4.0625 8.25 C3.381875 8.8275 2.70125 9.405 2 10 C-2.68322981 8.55900621 -2.68322981 8.55900621 -4.0625 6.125 C-4 4 -4 4 -2.0625 1.75 C-1.381875 1.1725 -0.70125 0.595 0 0 Z " fill="#E6E6E6" transform="translate(166,66)"/>
<path d="M0 0 C3.125 0.375 3.125 0.375 6 1 C6.625 3.3125 6.625 3.3125 7 6 C6.01 7.485 6.01 7.485 5 9 C2.5 9.3125 2.5 9.3125 0 9 C-2 7 -2 7 -2.25 4.5 C-2 2 -2 2 0 0 Z " fill="#EBEBEB" transform="translate(53,89)"/>
<path d="M0 0 C2.5 0.25 2.5 0.25 4.5 2.25 C4.17028521 5.54714793 3.8773161 6.8726839 1.5 9.25 C-3.05555556 8.69444444 -3.05555556 8.69444444 -4.5 7.25 C-4.6875 4.8125 -4.6875 4.8125 -4.5 2.25 C-2.5 0.25 -2.5 0.25 0 0 Z " fill="#ECECEC" transform="translate(122.5,155.75)"/>
</svg>
